# xmcd
#
# Track frame offsets:
#	150
#	20040
#	35670
#	47063
#	64992
#	80870
#	95138
#	113460
#	134610
#	149867
#	166017
#	181610
#	196622
#	207537
#	219392
#	231450
#	249113
#	266235
#	281985
#	293592
#
# Disc length: 4093 seconds
#
# Revision: 0
# Processed by: cddbd v1.5.2PL0 Copyright (c) Steve Scherf et al.
# Submitted via: audiograbber 1.83.01
#
DISCID=3b0ffb14
DTITLE=Dragan Stojnic - Bila je tako lijepa
DYEAR=1991
DGENRE=Easy Listening
TTITLE0=Maestro i violina
TTITLE1=Zasto dolazis samo s kisom
TTITLE2=Jelisejska polja
TTITLE3=Zivot koji zivim
TTITLE4=La boheme
TTITLE5=Bila je tako lijepa
TTITLE6=Jedan covek i jedna zena
TTITLE7=Nema vise romantike
TTITLE8=Zimska je ruza
TTITLE9=Dan za danom
TTITLE10=To je ljubav
TTITLE11=Bice dana
TTITLE12=Ti
TTITLE13=Stari momci
TTITLE14=Kako je tuzna Venecija
TTITLE15=Ide, ide zivot
TTITLE16=C`est la vie
TTITLE17=Ja to znam
TTITLE18=U letnjoj noci
TTITLE19=Ide voz
EXTD=
EXTT0=
EXTT1=
EXTT2=
EXTT3=
EXTT4=
EXTT5=
EXTT6=
EXTT7=
EXTT8=
EXTT9=
EXTT10=
EXTT11=
EXTT12=
EXTT13=
EXTT14=
EXTT15=
EXTT16=
EXTT17=
EXTT18=
EXTT19=
PLAYORDER=
